HIERARCHY
ROOT SimulationBone
{
	OFFSET 0.000000 0.000000 0.000000
	CHANNELS 6 Xposition Yposition Zposition Zrotation Yrotation Xrotation 
	JOINT Hips
	{
		OFFSET 0.000000 0.000000 0.000000
		CHANNELS 6 Xposition Yposition Zposition Zrotation Yrotation Xrotation 
		JOINT LeftUpLeg
		{
			OFFSET 0.103462 1.857831 10.548496
			CHANNELS 3 Zrotation Yrotation Xrotation
			JOINT LeftLeg
			{
				OFFSET 43.500000 -0.000038 -0.000010
				CHANNELS 3 Zrotation Yrotation Xrotation
				JOINT LeftFoot
				{
					OFFSET 42.372192 0.000011 0.000010
					CHANNELS 3 Zrotation Yrotation Xrotation
					JOINT LeftToe
					{
						OFFSET 17.299999 0.000001 -0.000001
						CHANNELS 3 Zrotation Yrotation Xrotation
						End Site
						{
							OFFSET 0.000000 0.000000 0.000000
						}
					}
				}
			}
		}
		JOINT RightUpLeg
		{
			OFFSET 0.103456 1.857825 -10.548502
			CHANNELS 3 Zrotation Yrotation Xrotation
			JOINT RightLeg
			{
				OFFSET 43.500038 -0.000023 0.000011
				CHANNELS 3 Zrotation Yrotation Xrotation
				JOINT RightFoot
				{
					OFFSET 42.372261 -0.000008 0.000011
					CHANNELS 3 Zrotation Yrotation Xrotation
					JOINT RightToe
					{
						OFFSET 17.299994 -0.000004 0.000002
						CHANNELS 3 Zrotation Yrotation Xrotation
						End Site
						{
							OFFSET 0.000000 0.000000 0.000000
						}
					}
				}
			}
		}
		JOINT Spine
		{
			OFFSET 6.901965 -2.603729 -0.000002
			CHANNELS 3 Zrotation Yrotation Xrotation
			JOINT Spine1
			{
				OFFSET 12.588101 -0.000004 0.000003
				CHANNELS 3 Zrotation Yrotation Xrotation
				JOINT Spine2
				{
					OFFSET 12.343205 0.000006 0.000001
					CHANNELS 3 Zrotation Yrotation Xrotation
					JOINT Neck
					{
						OFFSET 25.832897 -0.000008 -0.000001
						CHANNELS 3 Zrotation Yrotation Xrotation
						JOINT Head
						{
							OFFSET 11.766601 0.000009 -0.000008
							CHANNELS 3 Zrotation Yrotation Xrotation
							End Site
							{
								OFFSET 0.000000 0.000000 0.000000
							}
						}
					}
					JOINT LeftShoulder
					{
						OFFSET 19.745893 -1.480370 6.000097
						CHANNELS 3 Zrotation Yrotation Xrotation
						JOINT LeftArm
						{
							OFFSET 11.284136 -0.000006 -0.000021
							CHANNELS 3 Zrotation Yrotation Xrotation
							JOINT LeftForeArm
							{
								OFFSET 33.000042 0.000005 0.000030
								CHANNELS 3 Zrotation Yrotation Xrotation
								JOINT LeftHand
								{
									OFFSET 25.200008 0.000013 0.000010
									CHANNELS 3 Zrotation Yrotation Xrotation
									End Site
									{
										OFFSET 0.000000 0.000000 0.000000
									}
								}
							}
						}
					}
					JOINT RightShoulder
					{
						OFFSET 19.746088 -1.480379 -6.000076
						CHANNELS 3 Zrotation Yrotation Xrotation
						JOINT RightArm
						{
							OFFSET 11.284133 -0.000016 -0.000013
							CHANNELS 3 Zrotation Yrotation Xrotation
							JOINT RightForeArm
							{
								OFFSET 33.000095 0.000019 0.000001
								CHANNELS 3 Zrotation Yrotation Xrotation
								JOINT RightHand
								{
									OFFSET 25.199785 0.000138 0.000422
									CHANNELS 3 Zrotation Yrotation Xrotation
									End Site
									{
										OFFSET 0.000000 0.000000 0.000000
									}
								}
							}
						}
					}
				}
			}
		}
	}
}
MOTION
Frames: 15
Frame Time: 0.016667
-294.816649 0.000000 -352.399710 0.000000 -79.760599 0.000000 0.215518 87.796577 0.429893 95.454591 -1.271774 179.062199 -164.744764 5.974701 -176.755447 -13.125455 -3.430860 -8.178847 88.158234 6.037742 2.335281 21.454551 0.003087 -0.000002 154.750995 -1.103603 -172.155779 -17.529105 3.043633 6.898147 66.952922 -3.301580 5.174693 21.454557 -0.003111 -0.000018 8.612397 -1.336470 -1.255077 7.243146 -2.591966 -2.591825 6.925027 -2.607432 -2.576132 -6.611421 -4.630861 -7.475653 -17.471479 14.093216 -13.920149 170.604724 -78.246095 8.030194 -51.326647 48.826569 2.222113 -50.525449 -17.881130 1.959631 0.489864 -6.944348 41.123185 -165.260606 71.305273 16.544698 -5.428584 -62.324265 -31.504612 -34.308207 16.935010 -1.471160 6.515848 3.217883 -9.013762 
-294.429998 0.000000 -350.776656 0.000000 -79.343741 0.000000 0.274126 87.384799 0.441616 95.496380 -1.135341 178.567953 -163.995941 5.891324 -177.362614 -14.111724 -3.492535 -7.799537 89.267411 5.734248 2.225367 21.454550 0.003092 -0.000001 154.892331 -1.921482 -172.328630 -16.207407 3.232626 7.202569 68.064818 -3.644746 4.953521 21.454556 -0.003106 -0.000017 8.597403 -1.284575 -1.208545 7.210811 -2.491540 -2.495189 6.892695 -2.506422 -2.480103 -6.362905 -4.807798 -7.544662 -17.644980 14.153379 -14.073244 172.296273 -78.280661 6.308229 -50.745922 49.024014 1.528459 -51.214730 -18.064670 1.994698 0.607760 -7.168729 40.696516 -165.290011 71.377672 16.513954 -3.830552 -62.461977 -33.263390 -33.063066 16.567184 -1.419537 6.433527 3.408386 -8.847694 
-294.036127 0.000000 -349.146020 0.000000 -78.978970 0.000000 0.364896 86.949837 0.464282 95.590120 -0.916063 178.136066 -163.386608 5.681105 -178.167055 -15.538291 -3.577040 -7.298300 90.289287 5.357973 2.123570 21.454551 0.003097 0.000001 154.895576 -2.733306 -171.967470 -16.426152 3.160875 6.960141 69.147734 -3.713591 4.328914 21.454557 -0.003104 -0.000016 8.587028 -1.194250 -1.165016 7.186948 -2.314037 -2.402248 6.868859 -2.328354 -2.388235 -6.216480 -5.041828 -7.578474 -17.619238 14.163014 -14.156942 174.121274 -78.263464 4.451723 -49.980216 49.374436 0.918428 -51.686294 -18.222615 2.021161 0.743921 -7.265061 40.022374 -165.137690 71.446433 16.670288 -2.299829 -62.455446 -34.944247 -31.859211 16.137922 -1.366429 6.377010 3.550912 -8.802028 
-293.636432 0.000000 -347.509326 0.000000 -78.671797 0.000000 0.488304 86.538920 0.509520 95.760495 -0.597871 177.877039 -162.833733 5.324140 -179.073645 -17.242537 -3.586114 -6.695882 90.934104 4.921843 1.986397 21.454550 0.003098 0.000003 154.969097 -3.504220 -171.129900 -17.727290 2.762341 6.000068 69.360306 -3.353582 3.310942 21.454558 -0.003107 -0.000016 8.589112 -1.061615 -1.136385 7.187475 -2.050815 -2.336698 6.869427 -2.064737 -2.324279 -6.071538 -5.271171 -7.593425 -17.589477 14.068565 -14.180259 175.750277 -78.204495 2.795309 -48.983824 49.880240 0.442480 -51.967904 -18.323175 2.037579 0.814253 -7.299522 39.343270 -164.603874 71.421117 17.219926 -0.924812 -62.228499 -36.555461 -30.760046 15.665899 -1.313460 6.465395 3.552131 -8.834517 
-293.231294 0.000000 -345.868883 0.000000 -78.422726 0.000000 0.653972 86.198677 0.571179 96.010446 -0.217125 177.876111 -162.335169 4.839203 -179.980539 -19.168067 -3.466436 -6.024479 90.927090 4.423202 1.630177 21.454551 0.003096 0.000003 155.214013 -4.176803 -170.439844 -19.443004 2.361875 4.911209 68.716060 -3.168557 1.454530 21.454560 -0.003109 -0.000016 8.603182 -0.898157 -1.136901 7.211894 -1.723949 -2.327662 6.893905 -1.737824 -2.317220 -5.891851 -5.393059 -7.632017 -17.636593 13.828205 -14.158019 177.008806 -78.140030 1.515671 -47.754346 50.533936 0.156726 -52.010708 -18.378741 2.042589 0.934875 -7.353308 38.448141 -163.837700 71.289256 18.009710 0.359384 -61.839882 -38.038354 -29.787390 15.212556 -1.265389 6.587959 3.422581 -9.042254 
-292.821119 0.000000 -344.226836 0.000000 -78.227105 0.000000 0.861704 85.962675 0.642632 96.320169 0.190048 178.167953 -161.949878 4.256269 179.184868 -21.329045 -3.179273 -5.325813 90.087120 3.865553 0.938520 21.454553 0.003094 0.000002 155.655928 -4.729619 -170.474229 -21.033038 2.282918 4.338663 67.557655 -3.774827 -1.464763 21.454559 -0.003105 -0.000018 8.623715 -0.716470 -1.171994 7.249277 -1.358349 -2.386603 6.931367 -1.372596 -2.378362 -5.680987 -5.344108 -7.725913 -17.779599 13.443692 -14.111234 177.910752 -78.096677 0.598307 -46.330401 51.305790 0.129469 -51.734326 -18.412157 2.035080 1.224445 -7.500352 37.075882 -163.021530 71.051116 18.852346 1.637300 -61.360638 -39.351860 -28.947509 14.842406 -1.225650 6.627201 3.194876 -9.468987 
-292.408559 0.000000 -342.584779 0.000000 -78.078662 0.000000 1.063152 85.812843 0.731744 96.593115 0.645230 178.624306 -161.893665 3.616302 178.371169 -23.918464 -2.694524 -4.662511 88.577239 3.315384 0.185563 21.454557 0.003096 -0.000000 156.068470 -5.319005 -171.051228 -22.592177 2.273394 4.501793 66.560500 -4.972282 -4.363455 21.454558 -0.003105 -0.000019 8.633721 -0.518312 -1.209491 7.265130 -0.959895 -2.449126 6.947292 -0.974533 -2.443282 -5.537076 -5.260528 -7.839884 -17.904187 13.078499 -14.083247 178.998412 -78.032584 -0.507991 -44.888880 52.092786 0.455451 -51.008262 -18.444058 2.013328 1.604698 -7.790153 35.221034 -162.120604 70.671958 19.784494 2.853667 -60.782473 -40.529313 -28.228141 14.588955 -1.196234 6.663882 2.886413 -9.806741 
-291.997482 0.000000 -340.944381 0.000000 -77.976973 0.000000 1.214054 85.703503 0.843321 96.757759 1.174644 179.107425 -162.383341 2.911961 177.531964 -27.194910 -2.071693 -4.074983 86.550649 2.828847 -0.354202 21.454558 0.003106 -0.000002 156.209325 -6.081974 -171.854159 -24.400893 2.072533 5.424395 66.353728 -6.302013 -6.166714 21.454557 -0.003115 -0.000019 8.622656 -0.303099 -1.215734 7.238225 -0.529795 -2.448009 6.920420 -0.544429 -2.444757 -5.532393 -5.291461 -7.937407 -17.905299 12.882445 -14.115104 -179.315308 -77.893289 -2.223137 -43.587385 52.794315 1.173919 -49.744793 -18.474538 1.974680 2.016534 -8.239607 32.950044 -161.114026 70.139307 20.828610 3.942912 -60.092299 -41.575095 -27.613898 14.448882 -1.176667 6.790824 2.533843 -9.794381 
-291.590217 0.000000 -339.307658 0.000000 -77.923701 0.000000 1.333371 85.530197 0.961610 96.924321 1.758716 179.586589 -163.484539 1.948193 176.750310 -31.504325 -1.711579 -3.450888 83.806359 2.299123 -0.762197 21.454557 0.003112 -0.000002 156.040316 -6.873710 -172.793718 -26.873658 1.970125 6.689055 67.304021 -7.437511 -7.033913 21.454558 -0.003123 -0.000019 8.616443 -0.071588 -1.188255 7.220791 -0.069141 -2.378634 6.902982 -0.083358 -2.378163 -5.543753 -5.435677 -8.039050 -17.848842 12.790167 -14.208358 -177.552994 -77.675611 -4.015604 -42.337429 53.398987 2.119708 -48.078817 -18.424707 1.916902 2.655754 -8.734524 30.365009 -160.187497 69.573417 21.792288 4.954977 -59.335511 -42.317839 -27.095126 14.302458 -1.157829 6.964652 2.263191 -9.705098 
-291.186576 0.000000 -337.676450 0.000000 -77.914917 0.000000 1.447173 85.220787 1.073913 97.207888 2.374439 -179.924468 -165.201594 0.553199 176.105598 -37.100278 -1.886317 -2.616474 80.262907 1.574539 -1.250155 21.454553 0.003106 0.000001 155.644891 -7.529528 -173.761817 -30.181061 2.261307 7.817524 69.502739 -8.172454 -7.374764 21.454557 -0.003115 -0.000018 8.640456 0.174837 -1.135445 7.264004 0.420349 -2.257700 6.946161 0.406852 -2.260185 -5.436418 -5.643912 -8.173048 -17.829138 12.692221 -14.347661 -176.269051 -77.418078 -5.321196 -41.033456 53.938045 3.106697 -46.167788 -18.227188 1.843732 3.668926 -9.138982 27.572758 -159.486950 69.112442 22.522571 5.956617 -58.592183 -42.633035 -26.665873 14.054486 -1.134205 7.129019 2.144422 -9.809011 
-290.785280 0.000000 -336.051641 0.000000 -77.941267 0.000000 1.548263 84.891197 1.191574 97.563068 3.035519 -179.330881 -167.451445 -1.179007 175.492804 -43.730565 -2.102301 -1.543171 76.669275 0.518312 -2.252527 21.454551 0.003095 0.000004 155.406160 -8.079111 -174.350960 -33.426023 2.727851 8.628132 72.116422 -8.532875 -7.380602 21.454557 -0.003100 -0.000017 8.681472 0.433703 -1.078787 7.341687 0.934724 -2.128003 7.023782 0.921997 -2.133595 -5.224844 -5.826992 -8.340223 -17.883281 12.518027 -14.492277 -175.353086 -77.219846 -6.253109 -39.738456 54.515655 4.067869 -44.030219 -17.939828 1.761768 4.787485 -9.435774 24.667670 -158.950112 68.818258 23.081906 6.920290 -58.015338 -42.720664 -26.326500 13.824938 -1.114223 7.296550 1.927887 -9.836266 
-290.385846 0.000000 -334.432306 0.000000 -77.988205 0.000000 1.630180 84.679598 1.322798 97.924355 3.728854 -178.567157 -170.110622 -3.076226 174.840976 -50.949846 -1.848868 -0.368847 73.652376 -0.931010 -4.013372 21.454550 0.003090 0.000003 155.683755 -8.573507 -174.233424 -35.704080 3.036526 9.090643 74.303502 -8.609930 -7.168259 21.454555 -0.003092 -0.000016 8.721110 0.695713 -1.035188 7.417138 1.456102 -2.023901 7.099141 1.443994 -2.032642 -4.965091 -5.931440 -8.529074 -18.002309 12.259209 -14.615910 -174.573997 -77.148383 -7.047103 -38.522608 55.208143 4.998958 -41.677661 -17.636476 1.674878 5.777097 -9.638806 21.780675 -158.482033 68.706454 23.567440 7.777556 -57.715956 -42.806373 -26.070905 13.737493 -1.104661 7.484455 1.397942 -9.499636 
-289.988620 0.000000 -332.816398 0.000000 -78.038458 0.000000 1.727318 84.625099 1.443004 98.295079 4.295248 -177.750367 -172.993611 -4.876400 174.415888 -58.053977 -1.287492 0.664901 70.423716 -2.436405 -5.747899 21.454550 0.003090 0.000001 156.457122 -8.996992 -173.680714 -37.108584 3.036665 9.322577 76.101591 -8.518841 -6.830517 21.454555 -0.003094 -0.000016 8.759588 0.925153 -0.989533 7.491385 1.912190 -1.917469 7.173280 1.900721 -1.928970 -4.728114 -6.086174 -8.709950 -18.051072 12.117691 -14.777405 -173.894771 -77.105242 -7.739689 -37.350468 55.899113 5.994116 -39.240061 -17.330469 1.589837 6.942676 -9.645430 19.194457 -158.024075 68.690164 24.040901 8.400489 -57.577735 -42.892159 -25.863320 13.715071 -1.099558 7.669172 0.802408 -8.974868 
-289.593797 0.000000 -331.202591 0.000000 -78.080856 0.000000 1.872141 84.730025 1.526943 98.685857 4.593417 -177.029240 -175.933878 -6.325545 174.419851 -64.407732 -0.725347 1.425185 66.355212 -3.591428 -6.595232 21.454547 0.003094 0.000002 157.622047 -9.330243 -173.114794 -37.933971 2.736859 9.465510 77.716713 -8.376675 -6.454774 21.454556 -0.003106 -0.000018 8.801820 1.089177 -0.919667 7.574996 2.235998 -1.766506 7.256788 2.225439 -1.779975 -4.567530 -6.391717 -8.865236 -17.922844 12.252095 -15.028173 -173.292312 -76.986242 -8.353631 -36.199673 56.459073 7.100634 -36.836727 -17.006638 1.509704 8.551163 -9.353547 17.189819 -157.544306 68.665255 24.537063 8.655886 -57.451761 -42.917301 -25.678072 13.661369 -1.092986 7.830742 0.396177 -8.516493 
-289.201185 0.000000 -329.590509 0.000000 -78.116082 0.000000 2.046091 84.948624 1.578491 99.096381 4.697976 -176.504117 -178.828245 -7.411697 174.567833 -69.858088 -0.168818 1.998575 63.132271 -4.216754 -6.483454 21.454545 0.003096 0.000003 159.097277 -9.590602 -172.970484 -38.303106 2.529733 9.653275 79.153040 -8.297892 -6.098910 21.454558 -0.003117 -0.000020 8.852513 1.192953 -0.807311 7.677595 2.436639 -1.534143 7.359297 2.427481 -1.548840 -4.456181 -6.650475 -9.039533 -17.746438 12.434995 -15.300448 -172.516425 -76.827069 -9.144595 -35.168745 56.912283 8.119523 -34.427663 -16.593075 1.425055 10.221021 -8.880466 15.861436 -157.057002 68.561996 25.042589 8.471607 -57.281038 -42.821388 -25.558237 13.604251 -1.087529 7.973483 -0.007960 -8.241287 
